# xmcd
#
# Track frame offsets: 
#        150
#        12620
#        33875
#        53602
#        67212
#        78060
#        90065
#        106392
#        122850
#        137810
#        153187
#        166567
#        187170
#        202487
#        216975
#        232567
#
# Disc length: 3256 seconds
#
# Revision: 2
# Processed by: cddbd v1.5.2PL0 Copyright (c) Steve Scherf et al.
# Submitted via: ExactAudioCopy v0.95a4
#
DISCID=cf0cb610
DTITLE=Kris Kristofferson - Kristofferson
DYEAR=1970
DGENRE=Country
TTITLE0=Blame It On The Stones
TTITLE1=To Beat The Devil
TTITLE2=Me And Bobby Mcgee
TTITLE3=Best Of All Possible Worlds
TTITLE4=Help Me Make It Through The Night
TTITLE5=The Law Is For Protection Of The People
TTITLE6=Casey's Last Ride
TTITLE7=Just The Other Side
TTITLE8=Darby's Castle
TTITLE9=For The Good Times
TTITLE10=Duvalier's Dream
TTITLE11=Sunday Mornin' Comin' Down
TTITLE12=The Junkie And The Juicehead, Minus Me (Bonus)
TTITLE13=Shadows Of Her Mind (Bonus)
TTITLE14=The Lady's Not For Sale (Bonus)
TTITLE15=Come Sundown (Bonus)
EXTD=Year: 1970
EXTT0=
EXTT1=
EXTT2=
EXTT3=
EXTT4=
EXTT5=
EXTT6=
EXTT7=
EXTT8=
EXTT9=
EXTT10=
EXTT11=
EXTT12=
EXTT13=
EXTT14=
EXTT15=
PLAYORDER=
